/* XPM */
static char *result[] = {
/* columns rows colors chars-per-pixel */
"64 64 28 1 ",
"  c black",
". c #010000",
"X c #010100",
"o c #080201",
"O c #0A0201",
"+ c #040803",
"@ c #040903",
"# c #050B03",
"$ c #060B03",
"% c #070E04",
"& c #0B1607",
"* c #E03222",
"= c #E33222",
"- c #E43223",
"; c #E63323",
": c #E73323",
"> c #E73424",
", c #E73727",
"< c #E83828",
"1 c #E83829",
"2 c #6EC83D",
"3 c #69CC3E",
"4 c #6ACD3E",
"5 c #FEFAF9",
"6 c #FEFAFA",
"7 c #FFFBFB",
"8 c white",
"9 c None",
/* pixels */
"9999999999999999999999999999999999999999999999999999999999999999",
"9999999999999999999999999999999999999999999999999999999999999999",
"9999999999999999999999999999999999999999999999999999999999999999",
"9999999999999999999999999999999999999999999999999999999999999999",
"9999999999999999999999999999999999999999999999999999999999999999",
"9999999999999999999999999999999999999999999999999999999999999999",
"9999999999999999999999999999999999999999999999999999999999999999",
"9999999999999999999999999999999999999999999999999999999999999999",
"9999999999999999999999999999999999999999999999999999999999999999",
"9999999999999999999999999999999999999999999999999999999999999999",
"9999999999999999999999999999999999999999999999999999999999999999",
"9999999999999999999999999999999999999999999999999999999999999999",
"9999999999999999999999999999999999999999999999999999999999999999",
"9999999999999999999999999999999999999999999999999999999999999999",
"9999999999999999999999999999999999999999999999999999999999999999",
"9999999999999999999999999999999999999999999999999999999999999999",
"9999999999999      999999999999999999999999999999999999999999999",
"9999999999999      999999999999999999999999999999999999999999999",
"9999999999999 %%%%%999999999999999999999999999999999999999999999",
"99999999999  444443     9999999999999999999999999999999999999999",
"99999999999  444443     9999999999999999999999999999999999999999",
"99999999999  44444444444      9999999999999999999999999999999999",
"99999999999  44444444444      9999999999999999999999999999999999",
"99999999999  44444444444 ##$$ 9999999999999999999999999999999999",
"9999999999999     X444  444444  99999999999999999999999999999999",
"9999999999999     X444  444444  99999999999999999999999999999999",
"9999999999999999  X444  44444444           999999999999999999999",
"9999999999999999  X444       444           999999999999999999999",
"9999999999999999  X444@+     444 OOOOOOOOOO999999999999999999999",
"9999999999999999999  444   999  :::::::::::   999999999999999999",
"9999999999999999999  444   999  :::::::::::   999999999999999999",
"9999999999999999999  &44444   ::::::::::::::::   999999999999999",
"9999999999999999999     444   :::::::::::::::*   999999999999999",
"9999999999999999999ooooo442   ::;::::::::::::*   999999999999999",
"9999999999999999  .:::::::::::  :::::::::::::*   999999999999999",
"9999999999999999  .:::::::::::  :::::::::::::*   999999999999999",
"9999999999999   ::::::::::::::::   :::::888::*   999999999999999",
"9999999999999   ::::::::::::::::   :::::888::*   999999999999999",
"9999999999999   =:::::::::::::::   <<<11856::*   999999999999999",
"9999999999999   =:::::::::::::::   888888::::*   999999999999999",
"9999999999999   =:::::::::::::::   888888::::*   999999999999999",
"9999999999999   =::::::::::888::   888888:::::   999999999999999",
"9999999999999   =::::::::::888::   ::::::::   999999999999999999",
"9999999999999   =::::>,,,,,778::   ========   999999999999999999",
"9999999999999   =::::888888:::::           999999999999999999999",
"9999999999999   =::::888888:::::           999999999999999999999",
"9999999999999   :::::888888:::::           999999999999999999999",
"9999999999999999  .:::::::::::  99999999999999999999999999999999",
"9999999999999999  .----------:  99999999999999999999999999999999",
"9999999999999999999           9999999999999999999999999999999999",
"9999999999999999999           9999999999999999999999999999999999",
"9999999999999999999           9999999999999999999999999999999999",
"9999999999999999999999999999999999999999999999999999999999999999",
"9999999999999999999999999999999999999999999999999999999999999999",
"9999999999999999999999999999999999999999999999999999999999999999",
"9999999999999999999999999999999999999999999999999999999999999999",
"9999999999999999999999999999999999999999999999999999999999999999",
"9999999999999999999999999999999999999999999999999999999999999999",
"9999999999999999999999999999999999999999999999999999999999999999",
"9999999999999999999999999999999999999999999999999999999999999999",
"9999999999999999999999999999999999999999999999999999999999999999",
"9999999999999999999999999999999999999999999999999999999999999999",
"9999999999999999999999999999999999999999999999999999999999999999",
"9999999999999999999999999999999999999999999999999999999999999999"
};
