/* XPM */
static char *result[] = {
/* columns rows colors chars-per-pixel */
"64 64 3 1 ",
"  c black",
". c #005914",
"X c None",
/* pixels */
"XXXXXXXXXXXXXXXXXXXXXXXXXXXXXXXXXXXXXXXXXXXXXXXXXXXXXXXXXXXXXXXX",
"XXXXXXXXXXXXXXXXXXXXXXXXXXXXXXXXXXXXXXXXXXXXXXXXXXXXXXXXXXXXXXXX",
"XXXXXXXXXXXXXXXXXXXXXXXXXX            XXXXXXXXXXXXXXXXXXXXXXXXXX",
"XXXXXXXXXXXXXXXXXXXXXX    ............    XXXXXXXXXXXXXXXXXXXXXX",
"XXXXXXXXXXXXXXXXXXX   ....................  XXXXXXXXXXXXXXXXXXXX",
"XXXXXXXXXXXXXXXXX  .........................  XXXXXXXXXXXXXXXXXX",
"XXXXXXXXXXXXXXX  .............................  XXXXXXXXXXXXXXXX",
"XXXXXXXXXXXXXX .................................  XXXXXXXXXXXXXX",
"XXXXXXXXXXXXX .................................... XXXXXXXXXXXXX",
"XXXXXXXXXXX  ................      ................ XXXXXXXXXXXX",
"XXXXXXXXXX ..............    XXXXXX     ............ XXXXXXXXXXX",
"XXXXXXXXX .............  XXXXXXXXXXXXXXX  ........... XXXXXXXXXX",
"XXXXXXXX ............  XXXXXXXXXXXXXXXXXXX  .......... XXXXXXXXX",
"XXXXXXX ...........  XXXXXXXXXXXXXXXXXXXXXXX .......... XXXXXXXX",
"XXXXXXX .......... XXXXXXXXXXXXXXXXXXXXXXXXXX .......... XXXXXXX",
"XXXXXX .......... XXXXXXXXXXXXXXXXXXXXXXXXXXXX  ......... XXXXXX",
"XXXXX .......... XXXXXXXXXXXXXXXXXXXXXXXXXXXXXXX ......... XXXXX",
"XXXXX .......... XXXXXXXXXXXXXXXXXXXXXXXXXXXXXXX ......... XXXXX",
"XXXX .......... XXXXXXXXXXXXXXXXXXXXXXXXXXXXXXXXX ......... XXXX",
"XXXX ......... XXXXXXXXXXXXXXXXXXXXXXXXXXXXXXXXXXX ........ XXXX",
"XXX ......... XXXXXXXXXXXXXXXXXXXXXXXXXXXXXXXXXXXX ......... XXX",
"XXX ......... XXXXXXXXXXXXXXXXXXXXXXXXXXXXXXXXXXXXX ........ XXX",
"XXX ........ XXXXXXXXXXXXXXXXXXXXXXXXXXXXXXXXXXXXXX ......... XX",
"XX ......... XXXXXXXXXXXXXXXXXXXXXXXXXXXXXXXXXXXXXXX ........ XX",
"XX ......... XXXXXXXXXXXXXXXXXXXXXXXXXXXXXXXXXXXXXXX ........ XX",
"XX ........ XXXXXXXXXXXXXXXXXXXXXXXXXXXXXXXXXXXXXXXX ......... X",
"XX ........ XXXXXXXXXXXXXXXXXXXXXXXXXXXXXXXXXXXXXXXXX ........ X",
"X ......... XXXXXXXXXXXXXXXXXXXXXXXXXXXXXXXXXXXXXXXXX ........ X",
"X ........ XXXXXXXXXXXXXXXXXXXXXXXXXXXXXXXXXXXXXXXXXX ........ X",
"X ........ XXXXXXXXXXXXXXXXXXXXXXXXXXXXXXXXXXXXXXXXXX ........ X",
"X ........ XXXXXXXXXXXXXXXXXXXXXXXXXXXXXXXXXXXXXXXXXX ........ X",
"X ........ XXXXXXXXXXXXXXXXXXXXXXXXXXXXXXXXXXXXXXXXXX ........ X",
"X ........ XXXXXXXXXXXXXXXXXXXXXXXXXXXXXXXXXXXXXXXXXX ........ X",
"X ........ XXXXXXXXXXXXXXXXXXXXXXXXXXXXXXXXXXXXXXXXXX ........ X",
"X ........ XXXXXXXXXXXXXXXXXXXXXXXXXXXXXXXXXXXXXXXXXX ........ X",
"X ........ XXXXXXXXXXXXXXXXXXXXXXXXXXXXXXXXXXXXXXXXXX ........ X",
"X ......... XXXXXXXXXXXXXXXXXXXXXXXXXXXXXXXXXXXXXXXXX ........ X",
"XX ........ XXXXXXXXXXXXXXXXXXXXXXXXXXXXXXXXXXXXXXXXX ........ X",
"XX ........ XXXXXXXXXXXXXXXXXXXXXXXXXXXXXXXXXXXXXXXX ......... X",
"XX ........ XXXXXXXXXXXXXXXXXXXXXXXXXXXXXXXXXXXXXXXX ........ XX",
"XX ......... XXXXXXXXXXXXXXXXXXXXXXXXXXXXXXXXXXXXXXX ........ XX",
"XXX ........ XXXXXXXXXXXXXXXXXXXXXXXXXXXXXXXXXXXXXX ......... XX",
"XXX ......... XXXXXXXXXXXXXXXXXXXXXXXXXXXXXXXXXXXXX ......... XX",
"XXXX ........ XXXXXXXXXXXXXXXXXXXXXXXXXXXXXXXXXXXX ......... XXX",
"XXXX ........ XXXXXXXXXXXXXXXXXXXXXXXXXXXXXXXXXXX .......... XXX",
"XXXXX ........ XXXXXXXXXXXXXXXXXXXXXXXXXXXXXXXXXX ......... XXXX",
"XXXXX ......... XXXXXXXXXXXXXXXXXXXXXXXXXXXXXXXX .......... XXXX",
"XXXXXX ........ XXXXXXXXXXXXXXXXXXXXXXXXXXXXXXX .......... XXXXX",
"XXXXXX ......... XXXXXXXXXXXXXXXXXXXXXXXXXXXXX .......... XXXXXX",
"XXXXXXX .........  XXXXXXXXXXXXXXXXXXXXXXXXXX ........... XXXXXX",
"XXXXXXXX .......... XXXXXXXXXXXXXXXXXXXXXXXX ........... XXXXXXX",
"XXXXXXXXX ..........  XXXXXXXXXXXXXXXXXXXX  ........... XXXXXXXX",
"XXXXXXXXXX ...........  XXXXXXXXXXXXXXXX  ............ XXXXXXXXX",
"XXXXXXXXXXX ............  XXXXXXXXXXX   ............. XXXXXXXXXX",
"XXXXXXXXXXXX .............           ............... XXXXXXXXXXX",
"XXXXXXXXXXXXX ....................................  XXXXXXXXXXXX",
"XXXXXXXXXXXXXX  ................................. XXXXXXXXXXXXXX",
"XXXXXXXXXXXXXXXX ..............................  XXXXXXXXXXXXXXX",
"XXXXXXXXXXXXXXXXX  ........................... XXXXXXXXXXXXXXXXX",
"XXXXXXXXXXXXXXXXXXX  .......................  XXXXXXXXXXXXXXXXXX",
"XXXXXXXXXXXXXXXXXXXXX   .................   XXXXXXXXXXXXXXXXXXXX",
"XXXXXXXXXXXXXXXXXXXXXXXX                 XXXXXXXXXXXXXXXXXXXXXXX",
"XXXXXXXXXXXXXXXXXXXXXXXXXXXXXXXXXXXXXXXXXXXXXXXXXXXXXXXXXXXXXXXX",
"XXXXXXXXXXXXXXXXXXXXXXXXXXXXXXXXXXXXXXXXXXXXXXXXXXXXXXXXXXXXXXXX"
};
