/* XPM */
static char *result[] = {
/* columns rows colors chars-per-pixel */
"64 64 8 1 ",
"  c black",
". c #000001",
"X c #010101",
"o c BlueViolet",
"O c #FDFDFE",
"+ c #FDFEFE",
"@ c #FEFEFE",
"# c None",
/* pixels */
"################################################################",
"################################################################",
"#######################                  #######################",
"####################### oooooooooooooooo #######################",
"####################### oooooooooooooooo #######################",
"####################### oooooooooooooooo #######################",
"##############          oooooooooooooooo          ##############",
"############## oooooooooooooooooooooooooooooooooo ##############",
"############## oooooooooooooooooooooooooooooooooo ##############",
"############## oooooooooooooooooooooooooooooooooo ##############",
"##########     oooooooooooooooooooooooooooooooooo     ##########",
"########## oooooooooooooooooooooooooooooooooooooooooo ##########",
"########## oooooooooooooooooooooooooooooooooooooooooo ##########",
"########## oooooooooooooooooooooooooooooooooooooooooo ##########",
"########## oooooooooooooooooooooooooooooooooooooooooo ##########",
"######     oooooooooooooooooooooooooooooooooooooooooo     ######",
"###### oooooooooooooooooooooooooooooooooooooooooooooooooo ######",
"###### oooooooooooooooooooooooooooooooooooooooooooooooooo ######",
"###### oooooooooooooooooooooooooooooooooooooooooooooooooo ######",
"###### oooooooooooooooo@@@@@@@@@oooooooooooo@@@@@@@@@oooo ######",
"###### oooooooooooooooo@@@@@@@@@oooooooooooo@@@@@@@@Ooooo ######",
"###### oooooooooooooooo@@@@@@@@@oooooooooooo@@@@@@@@Ooooo ######",
"###### oooooooooooooooo@@@@@@@@@oooooooooooo@@@@@@@@Ooooo ######",
"###### oooooooooooo@@@@@@@@@@@@@@@@@oooo@@@@@@@@@@@@@@@@@     ##",
"###### oooooooooooo@@@@@@@@@@@@@@@@@oooo@@@@@@@@@@@@@@@@@oooo ##",
"###### oooooooooooo@@@@@@@@@@@@@@@@@oooo@@@@@@@@@@@@@@@@@oooo ##",
"###### oooooooooooo@@@@@@@@@@@@@@@@@oooo@@@@@@@@@@@@@@@@@oooo ##",
"##     oooooooooooo@@@@@@@@@@@@@@@@@oooo@@@@@@@@@@@@@@@@@oooo ##",
"## oooooooooooooooo@@@@@@@@@        oooo@@@@@@@@@X       oooo ##",
"## oooooooooooooooo@@@@@@@@@        oooo@@@@@@@@@X       oooo ##",
"## oooooooooooooooo@@@@@@@@@        oooo@@@@@@@@@X       oooo ##",
"## oooooooooooooooo@@@@@@@@@        oooo@@@@@@@@@X       oooo ##",
"## oooooooooooooooo@@@@@@@@@        oooo@@@@@@@@@X       oooo ##",
"## oooooooooooooooo@@@@@@@@@        oooo@@@@@@@@@X       oooo ##",
"## oooooooooooooooo@@@@@@@@@        oooo@@@@@@@@@X       oooo ##",
"## oooooooooooooooo@@@@@@@@@        oooo@@@@@@@@@X       oooo ##",
"## oooooooooooooooo@@@@@@@@@@@@@oooooooo@@@@@@@@@@@@@oooooooo ##",
"## oooooooooooooooooooo@@@@@@@@+oooooooooooo@@@@@@@@@oooooooo ##",
"## oooooooooooooooooooo@@@@@@@@+oooooooooooo@@@@@@@@@oooooooo ##",
"## oooooooooooooooooooo@@@@@@@@+oooooooooooo@@@@@@@@@oooooooo ##",
"## oooooooooooooooooooo@@@@@@@@@oooooooooooo@@@@@@@@@oooooooo ##",
"## oooooooooooooooooooooooooooooooooooooooooooooooooooooooooo ##",
"## oooooooooooooooooooooooooooooooooooooooooooooooooooooooooo ##",
"## oooooooooooooooooooooooooooooooooooooooooooooooooooooooooo ##",
"## oooooooooooooooooooooooooooooooooooooooooooooooooooooooooo ##",
"## oooooooooooooooooooooooooooooooooooooooooooooooooooooooooo ##",
"## oooooooooooooooooooooooooooooooooooooooooooooooooooooooooo ##",
"## oooooooooooooooooooooooooooooooooooooooooooooooooooooooooo ##",
"## oooooooooooooooooooooooooooooooooooooooooooooooooooooooooo ##",
"## oooooooooooooooooooooooooooooooooooooooooooooooooooooooooo ##",
"## oooooooooooooooooooooooooooooooooooooooooooooooooooooooooo ##",
"## oooooooooooooooooooooooooooooooooooooooooooooooooooooooooo ##",
"## oooooooooooooooooooooooooooooooooooooooooooooooooooooooooo ##",
"## oooooooo    ooooooooooooo         oooooooooooo    oooooooo ##",
"## oooooooo ## ooooooooooooo ####### oooooooooooo ## oooooooo ##",
"## oooooooo ## ooooooooooooo ####### oooooooooooo ## oooooooo ##",
"## oooooooo ## ooooooooooooo ####### oooooooooooo ## oooooooo ##",
"## oooo     ##      oooooooo ####### ooooooo      ##      ooo ##",
"## oooo ########### oooooooo ####### ooooooo ############ ooo ##",
"## oooo ########### oooooooo ####### ooooooo ############ ooo ##",
"## oooo ########### oooooooo ####### ooooooo ############ ooo ##",
"##      ###########          #######         ############     ##",
"################################################################",
"################################################################"
};
