/* XPM */
static char *result[] = {
/* columns rows colors chars-per-pixel */
"64 64 8 1 ",
"  c black",
". c #000001",
"X c #010101",
"o c BlueViolet",
"O c #FDFDFE",
"+ c #FDFEFE",
"@ c #FEFEFE",
"# c None",
/* pixels */
"################################################################",
"################################################################",
"#######################                  #######################",
"####################### oooooooooooooooo #######################",
"####################### oooooooooooooooo #######################",
"####################### oooooooooooooooo #######################",
"##############          oooooooooooooooo          ##############",
"############## oooooooooooooooooooooooooooooooooo ##############",
"############## oooooooooooooooooooooooooooooooooo ##############",
"############## oooooooooooooooooooooooooooooooooo ##############",
"##########     oooooooooooooooooooooooooooooooooo     ##########",
"########## oooooooooooooooooooooooooooooooooooooooooo ##########",
"########## oooooooooooooooooooooooooooooooooooooooooo ##########",
"########## oooooooooooooooooooooooooooooooooooooooooo ##########",
"########## oooooooooooooooooooooooooooooooooooooooooo ##########",
"######     oooooooooooooooooooooooooooooooooooooooooo     ######",
"###### oooooooooooooooooooooooooooooooooooooooooooooooooo ######",
"###### oooooooooooooooooooooooooooooooooooooooooooooooooo ######",
"###### oooooooooooooooooooooooooooooooooooooooooooooooooo ######",
"###### oooo@@@@@@@@@oooooooooooo@@@@@@@@@oooooooooooooooo ######",
"###### ooooO@@@@@@@@oooooooooooo@@@@@@@@@oooooooooooooooo ######",
"###### ooooO@@@@@@@@oooooooooooo@@@@@@@@@oooooooooooooooo ######",
"###### ooooO@@@@@@@@oooooooooooo@@@@@@@@@oooooooooooooooo ######",
"##     @@@@@@@@@@@@@@@@@oooo@@@@@@@@@@@@@@@@@oooooooooooo ######",
"## oooo@@@@@@@@@@@@@@@@@oooo@@@@@@@@@@@@@@@@@oooooooooooo ######",
"## oooo@@@@@@@@@@@@@@@@@oooo@@@@@@@@@@@@@@@@@oooooooooooo ######",
"## oooo@@@@@@@@@@@@@@@@@oooo@@@@@@@@@@@@@@@@@oooooooooooo ######",
"## oooo@@@@@@@@@@@@@@@@@oooo@@@@@@@@@@@@@@@@@oooooooooooo     ##",
"## oooo       X@@@@@@@@@oooo        @@@@@@@@@oooooooooooooooo ##",
"## oooo       X@@@@@@@@@oooo        @@@@@@@@@oooooooooooooooo ##",
"## oooo       X@@@@@@@@@oooo        @@@@@@@@@oooooooooooooooo ##",
"## oooo       X@@@@@@@@@oooo        @@@@@@@@@oooooooooooooooo ##",
"## oooo       X@@@@@@@@@oooo        @@@@@@@@@oooooooooooooooo ##",
"## oooo       X@@@@@@@@@oooo        @@@@@@@@@oooooooooooooooo ##",
"## oooo       X@@@@@@@@@oooo        @@@@@@@@@oooooooooooooooo ##",
"## oooo       X@@@@@@@@@oooo        @@@@@@@@@oooooooooooooooo ##",
"## oooooooo@@@@@@@@@@@@@oooooooo@@@@@@@@@@@@@oooooooooooooooo ##",
"## oooooooo@@@@@@@@@oooooooooooo+@@@@@@@@oooooooooooooooooooo ##",
"## oooooooo@@@@@@@@@oooooooooooo+@@@@@@@@oooooooooooooooooooo ##",
"## oooooooo@@@@@@@@@oooooooooooo+@@@@@@@@oooooooooooooooooooo ##",
"## oooooooo@@@@@@@@@oooooooooooo@@@@@@@@@oooooooooooooooooooo ##",
"## oooooooooooooooooooooooooooooooooooooooooooooooooooooooooo ##",
"## oooooooooooooooooooooooooooooooooooooooooooooooooooooooooo ##",
"## oooooooooooooooooooooooooooooooooooooooooooooooooooooooooo ##",
"## oooooooooooooooooooooooooooooooooooooooooooooooooooooooooo ##",
"## oooooooooooooooooooooooooooooooooooooooooooooooooooooooooo ##",
"## oooooooooooooooooooooooooooooooooooooooooooooooooooooooooo ##",
"## oooooooooooooooooooooooooooooooooooooooooooooooooooooooooo ##",
"## oooooooooooooooooooooooooooooooooooooooooooooooooooooooooo ##",
"## oooooooooooooooooooooooooooooooooooooooooooooooooooooooooo ##",
"## oooooooooooooooooooooooooooooooooooooooooooooooooooooooooo ##",
"## oooooooooooooooooooooooooooooooooooooooooooooooooooooooooo ##",
"## oooooooooooooooooooooooooooooooooooooooooooooooooooooooooo ##",
"## oooooooo    oooooooooooo         ooooooooooooo    oooooooo ##",
"## oooooooo ## oooooooooooo ####### ooooooooooooo ## oooooooo ##",
"## oooooooo ## oooooooooooo ####### ooooooooooooo ## oooooooo ##",
"## oooooooo ## oooooooooooo ####### ooooooooooooo ## oooooooo ##",
"## ooo      ##      ooooooo ####### oooooooo      ##     oooo ##",
"## ooo ############ ooooooo ####### oooooooo ########### oooo ##",
"## ooo ############ ooooooo ####### oooooooo ########### oooo ##",
"## ooo ############ ooooooo ####### oooooooo ########### oooo ##",
"##     ############         #######          ###########      ##",
"################################################################",
"################################################################"
};
